<svg width="59" height="48" viewBox="0 0 59 48" fill="none" xmlns="http://www.w3.org/2000/svg">
<path d="M58.2373 1.19192C57.6397 0.446958 56.7932 0.0496519 55.8471 0.0496519C55.5484 0.0496519 55.2496 0.0993099 54.9508 0.198638L29.8543 7.84691L4.75776 0.148986C4.45899 0.049658 4.16023 0 3.86146 0C2.96516 0 2.06886 0.397306 1.47132 1.14227C0.724403 2.13555 0.624801 3.47649 1.27213 4.5691L27.265 46.4359C27.8127 47.3298 28.7588 47.8761 29.8045 47.8761C30.8502 47.8761 31.7963 47.3298 32.344 46.4359L58.3369 4.5691C59.034 3.52615 58.9842 2.1852 58.2373 1.19192Z" fill="#C50B43"/>
<path d="M58.3866 43.3071L32.3938 1.44024C31.846 0.546286 30.8999 0 29.8542 0V40.0292L54.9508 47.7271C55.2495 47.8265 55.5483 47.8761 55.8471 47.8761C56.7434 47.8761 57.6397 47.4788 58.2372 46.7339C58.9841 45.7406 59.0339 44.35 58.3866 43.3071Z" fill="url(#paint0_linear_1461_7274)"/>
<path d="M1.32216 43.3071L27.315 1.44024C27.8627 0.546286 28.8088 0 29.8545 0V40.0292L4.75797 47.7271C4.45921 47.8265 4.16044 47.8761 3.86168 47.8761C2.96537 47.8761 2.06907 47.4788 1.47154 46.7339C0.724618 45.7406 0.67483 44.35 1.32216 43.3071Z" fill="url(#paint1_linear_1461_7274)"/>
<defs>
<linearGradient id="paint0_linear_1461_7274" x1="49.9492" y1="51.7341" x2="22.5808" y2="4.20602" gradientUnits="userSpaceOnUse">
<stop stop-color="#D70D49"/>
<stop offset="1" stop-color="#FC8F26"/>
</linearGradient>
<linearGradient id="paint1_linear_1461_7274" x1="-3.12859" y1="38.7892" x2="38.3868" y2="14.7573" gradientUnits="userSpaceOnUse">
<stop stop-color="#FC8F26"/>
<stop offset="1" stop-color="#D70D49"/>
</linearGradient>
</defs>
</svg>
