<svg width="163" height="108" viewBox="0 0 163 108" fill="none" xmlns="http://www.w3.org/2000/svg">
<path d="M31.2213 100.803H33.711C34.4082 100.803 35.2049 101.052 35.2049 102.591C35.2049 104.379 34.3584 104.429 33.711 104.429C33.3625 104.429 31.7193 104.33 31.7193 104.28V107.061H31.2213V100.803ZM33.711 103.932C34.2588 103.932 34.7069 103.783 34.7069 102.542C34.7069 101.35 34.1094 101.25 33.711 101.25H31.7193V103.883H33.711V103.932Z" fill="black"/>
<path d="M40.1843 100.754C41.6782 100.754 42.5745 101.052 42.5745 103.982C42.5745 106.713 41.728 107.111 40.1843 107.111C38.6407 107.111 37.7942 106.862 37.7942 103.982C37.7942 101.052 38.7403 100.754 40.1843 100.754ZM40.1843 106.614C41.5786 106.614 42.0765 106.266 42.0765 103.982C42.0765 101.35 41.4292 101.25 40.1843 101.25C38.9893 101.25 38.2921 101.3 38.2921 103.982C38.2921 106.266 38.7901 106.614 40.1843 106.614Z" fill="black"/>
<path d="M45.4128 100.803H45.9108V105.969C45.9108 106.515 46.2593 106.564 46.6079 106.564H49.1474V107.061H46.6079C46.0602 107.061 45.4626 106.962 45.4626 105.969V100.803H45.4128Z" fill="black"/>
<path d="M53.8778 100.754C55.3716 100.754 56.2679 101.052 56.2679 103.982C56.2679 106.713 55.4214 107.111 53.8778 107.111C52.3342 107.111 51.4877 106.862 51.4877 103.982C51.5375 101.052 52.4338 100.754 53.8778 100.754ZM53.8778 106.614C55.2721 106.614 55.77 106.266 55.77 103.982C55.77 101.35 55.1227 101.25 53.8778 101.25C52.6827 101.25 51.9856 101.3 51.9856 103.982C51.9856 106.266 52.4836 106.614 53.8778 106.614Z" fill="black"/>
<path d="M65.0817 100.803H65.5796L67.7706 107.061H67.2229L66.6253 105.174H63.9862L63.3389 107.061H62.7413L65.0817 100.803ZM66.4262 104.677L65.3307 101.499L64.1854 104.677H66.4262Z" fill="black"/>
<path d="M70.2604 101.896C70.2604 101.052 70.7583 100.754 71.3559 100.803L73.995 100.903V101.25H71.3559C70.8579 101.25 70.7583 101.499 70.7583 101.896V103.684L73.6464 103.734V104.131L70.7583 104.181V105.969C70.7583 106.515 71.1069 106.564 71.4555 106.564H73.995V106.912L71.4555 107.061C70.9077 107.111 70.3102 106.962 70.3102 105.969V101.896H70.2604Z" fill="black"/>
<path d="M76.634 100.803H79.2233C79.9703 100.803 80.6674 101.151 80.6674 102.641C80.6674 104.28 79.8707 104.379 79.4723 104.429L80.8168 107.061H80.269L78.9246 104.429C78.7752 104.429 77.0822 104.33 77.0822 104.33V107.061H76.5842V100.803H76.634ZM79.2233 103.932C79.7213 103.932 80.1695 103.883 80.1695 102.641C80.1695 101.449 79.6715 101.3 79.2233 101.3H77.132V103.932H79.2233V103.932Z" fill="black"/>
<path d="M85.6469 100.754C87.1407 100.754 88.037 101.052 88.037 103.982C88.037 106.713 87.1905 107.111 85.6469 107.111C84.1032 107.111 83.2567 106.862 83.2567 103.982C83.2567 101.052 84.2028 100.754 85.6469 100.754ZM85.6469 106.614C87.0411 106.614 87.5391 106.266 87.5391 103.982C87.5391 101.35 86.8917 101.25 85.6469 101.25C84.4518 101.25 83.7547 101.3 83.7547 103.982C83.7547 106.266 84.2526 106.614 85.6469 106.614Z" fill="black"/>
<path d="M90.8754 100.803H91.3733L94.8589 106.117V100.803H95.3569V107.061H94.8589L91.3733 101.747V107.061H90.8754V100.803Z" fill="black"/>
<path d="M100.336 100.803H100.834L103.025 107.061H102.477L101.88 105.174H99.2408L98.5935 107.061H97.996L100.336 100.803ZM101.731 104.677L100.635 101.499L99.4898 104.677H101.731ZM101.382 99.1149H101.98L100.834 100.257H100.386L101.382 99.1149Z" fill="black"/>
<path d="M105.465 100.803H105.963V104.33C105.963 106.664 106.71 106.614 107.756 106.614C108.702 106.614 109.499 106.564 109.499 104.33V100.803H109.997V104.33C109.997 107.061 108.801 107.111 107.756 107.111C106.611 107.111 105.465 107.16 105.465 104.33V100.803Z" fill="black"/>
<path d="M112.586 100.803H116.968V101.3H114.976V107.061H114.478V101.3H112.536V100.803H112.586Z" fill="black"/>
<path d="M119.706 100.803H120.204V107.061H119.706V100.803Z" fill="black"/>
<path d="M125.034 100.754C125.483 100.754 126.429 100.853 127.026 100.952V101.35C127.026 101.35 125.831 101.25 125.034 101.25C123.889 101.25 123.441 101.797 123.441 103.932C123.441 105.522 123.839 106.614 125.034 106.614C125.931 106.614 127.026 106.564 127.026 106.564V106.962C126.429 107.061 125.483 107.16 125.034 107.16C123.441 107.16 122.943 105.82 122.943 103.982C122.943 101.946 123.341 100.754 125.034 100.754Z" fill="black"/>
<path d="M131.806 100.754C133.3 100.754 134.197 101.052 134.197 103.982C134.197 106.713 133.35 107.111 131.806 107.111C130.263 107.111 129.416 106.862 129.416 103.982C129.416 101.052 130.362 100.754 131.806 100.754ZM131.806 106.614C133.201 106.614 133.699 106.266 133.699 103.982C133.699 101.35 133.051 101.25 131.806 101.25C130.611 101.25 129.914 101.3 129.914 103.982C129.914 106.266 130.412 106.614 131.806 106.614Z" fill="black"/>
<path d="M7.76796 83.3216L6.22433 87.3444H0L9.51077 64.9459C9.80954 64.201 10.5565 63.7043 11.403 63.7043H14.2911C15.0878 63.7043 15.8347 64.201 16.1833 64.9459L25.6443 87.3444H19.4199L17.8265 83.3216H7.76796ZM12.7474 70.5083L9.70996 78.3056H15.7849L12.7474 70.5083Z" fill="black"/>
<path d="M49.7449 87.3445H46.1099C45.5123 87.3445 44.9646 87.0962 44.5662 86.6492L33.8604 74.4318V87.3445H27.9846V63.8534H31.52C32.1176 63.8534 32.6653 64.1017 33.0637 64.5487L43.8193 77.064V63.8534H49.6951V87.3445H49.7449Z" fill="black"/>
<path d="M65.729 69.0681V87.3445H59.8532V69.0681H52.3342V63.8534H73.1982V67.0319C73.1982 68.1245 72.3019 69.0681 71.1566 69.0681H65.729Z" fill="black"/>
<path d="M78.3769 83.3216L76.8332 87.3444H70.6089L80.1197 64.9459C80.4185 64.201 81.1654 63.7043 82.0119 63.7043H84.9C85.6967 63.7043 86.4436 64.201 86.7922 64.9459L96.2531 87.3444H90.0288L88.4354 83.3216H78.3769ZM83.4061 70.5083L80.3687 78.3056H86.4436L83.4061 70.5083Z" fill="black"/>
<path d="M104.569 80.5405V87.3445H98.693V63.8534H109.001C114.826 63.8534 118.76 67.0319 118.76 72.0976C118.76 75.3754 117.067 77.958 114.279 79.3982L120.354 87.3445H114.279C113.631 87.3445 113.034 87.0465 112.636 86.5499L108.204 80.5405H104.569ZM108.901 75.2761C111.142 75.2761 112.934 74.0345 112.934 72.0976C112.934 70.2104 111.142 68.9688 108.901 68.9688H104.569V75.2761H108.901Z" fill="black"/>
<path d="M128.371 73.1902H138.778V76.1204C138.778 77.213 137.881 78.1566 136.736 78.1566H128.321V82.2291H140.272V87.2948H122.445V63.8534H140.272V68.9191H128.321V73.1902H128.371Z" fill="black"/>
<path d="M162.829 71.154H158.397C157.6 71.154 156.903 70.6574 156.554 69.9621C156.007 68.8695 154.911 68.1742 153.119 68.1742C151.127 68.1742 149.782 69.0185 149.782 70.5084C149.782 71.7997 150.728 72.346 152.471 72.7433L155.758 73.4882C160.04 74.4319 162.878 76.1701 162.878 80.1929C162.878 84.911 158.994 87.8411 153.119 87.8411C147.84 87.8411 143.06 85.3579 142.463 79.5472H146.894C147.641 79.5472 148.338 79.9446 148.687 80.6399C149.434 82.0801 151.027 82.8747 153.268 82.8747C155.459 82.8747 156.604 82.0801 156.604 80.7888C156.604 79.9942 156.106 79.1499 154.114 78.8023L150.23 77.958C145.6 76.9647 143.409 74.7795 143.409 71.0547C143.409 66.3366 147.243 63.4064 152.77 63.4064C156.554 63.3071 162.231 64.797 162.829 71.154Z" fill="black"/>
<path d="M109.797 2.07131C109.2 1.32635 108.353 0.929046 107.407 0.929046C107.108 0.929046 106.81 0.978704 106.511 1.07803L81.4143 8.72631L56.3178 1.02838C56.0191 0.929053 55.7203 0.879395 55.4215 0.879395C54.5252 0.879395 53.6289 1.2767 53.0314 2.02166C52.2845 3.01494 52.1849 4.35588 52.8322 5.44849L78.825 47.3153C79.3728 48.2092 80.3189 48.7555 81.3646 48.7555C82.4103 48.7555 83.3563 48.2092 83.9041 47.3153L109.897 5.44849C110.594 4.40555 110.544 3.06459 109.797 2.07131Z" fill="#C50B43"/>
<path d="M109.947 44.1865L83.9538 2.31963C83.4061 1.42568 82.46 0.879395 81.4143 0.879395V40.9086L106.511 48.6065C106.81 48.7059 107.108 48.7555 107.407 48.7555C108.303 48.7555 109.2 48.3582 109.797 47.6133C110.544 46.62 110.594 45.2294 109.947 44.1865Z" fill="url(#paint0_linear_1461_7273)"/>
<path d="M52.8822 44.1865L78.875 2.31963C79.4228 1.42568 80.3689 0.879395 81.4146 0.879395V40.9086L56.318 48.6065C56.0193 48.7059 55.7205 48.7555 55.4217 48.7555C54.5254 48.7555 53.6291 48.3582 53.0316 47.6133C52.2847 46.62 52.2349 45.2294 52.8822 44.1865Z" fill="url(#paint1_linear_1461_7273)"/>
<defs>
<linearGradient id="paint0_linear_1461_7273" x1="101.509" y1="52.6135" x2="74.1409" y2="5.08542" gradientUnits="userSpaceOnUse">
<stop stop-color="#D70D49"/>
<stop offset="1" stop-color="#FC8F26"/>
</linearGradient>
<linearGradient id="paint1_linear_1461_7273" x1="48.4315" y1="39.6686" x2="89.9468" y2="15.6366" gradientUnits="userSpaceOnUse">
<stop stop-color="#FC8F26"/>
<stop offset="1" stop-color="#D70D49"/>
</linearGradient>
</defs>
</svg>
