<svg width="163" height="107" viewBox="0 0 163 107" fill="none" xmlns="http://www.w3.org/2000/svg">
<path d="M31.2783 99.9241H33.7681C34.4652 99.9241 35.2619 100.172 35.2619 101.712C35.2619 103.5 34.4154 103.55 33.7681 103.55C33.4195 103.55 31.7763 103.45 31.7763 103.401V106.182H31.2783V99.9241ZM33.7681 103.053C34.3158 103.053 34.7639 102.904 34.7639 101.662C34.7639 100.47 34.1664 100.371 33.7681 100.371H31.7763V103.003H33.7681V103.053Z" fill="white"/>
<path d="M40.2413 99.8744C41.7352 99.8744 42.6315 100.172 42.6315 103.103C42.6315 105.834 41.785 106.231 40.2413 106.231C38.6977 106.231 37.8512 105.983 37.8512 103.103C37.8512 100.172 38.7973 99.8744 40.2413 99.8744ZM40.2413 105.735C41.6356 105.735 42.1335 105.387 42.1335 103.103C42.1335 100.47 41.4862 100.371 40.2413 100.371C39.0463 100.371 38.3491 100.421 38.3491 103.103C38.3491 105.387 38.8471 105.735 40.2413 105.735Z" fill="white"/>
<path d="M45.4698 99.9241H45.9678V105.089C45.9678 105.635 46.3163 105.685 46.6649 105.685H49.2044V106.182H46.6649C46.1172 106.182 45.5196 106.082 45.5196 105.089V99.9241H45.4698Z" fill="white"/>
<path d="M53.9348 99.8744C55.4286 99.8744 56.3249 100.172 56.3249 103.103C56.3249 105.834 55.4784 106.231 53.9348 106.231C52.3912 106.231 51.5447 105.983 51.5447 103.103C51.5945 100.172 52.4908 99.8744 53.9348 99.8744ZM53.9348 105.735C55.3291 105.735 55.827 105.387 55.827 103.103C55.827 100.47 55.1797 100.371 53.9348 100.371C52.7397 100.371 52.0426 100.421 52.0426 103.103C52.0426 105.387 52.5406 105.735 53.9348 105.735Z" fill="white"/>
<path d="M65.1387 99.9241H65.6366L67.8276 106.182H67.2799L66.6823 104.294H64.0432L63.3959 106.182H62.7983L65.1387 99.9241ZM66.4832 103.798L65.3877 100.619L64.2424 103.798H66.4832Z" fill="white"/>
<path d="M70.3173 101.017C70.3173 100.172 70.8152 99.8744 71.4127 99.9241L74.0519 100.023V100.371H71.4127C70.9148 100.371 70.8152 100.619 70.8152 101.017V102.805L73.7033 102.854V103.252L70.8152 103.301V105.089C70.8152 105.635 71.1638 105.685 71.5123 105.685H74.0519V106.033L71.5123 106.182C70.9646 106.231 70.3671 106.082 70.3671 105.089V101.017H70.3173Z" fill="white"/>
<path d="M76.691 99.9241H79.2803C80.0273 99.9241 80.7244 100.272 80.7244 101.762C80.7244 103.401 79.9277 103.5 79.5293 103.55L80.8738 106.182H80.3261L78.9816 103.55C78.8322 103.55 77.1392 103.45 77.1392 103.45V106.182H76.6412V99.9241H76.691ZM79.2803 103.053C79.7783 103.053 80.2265 103.003 80.2265 101.762C80.2265 100.57 79.7285 100.421 79.2803 100.421H77.189V103.053H79.2803V103.053Z" fill="white"/>
<path d="M85.7039 99.8744C87.1977 99.8744 88.094 100.172 88.094 103.103C88.094 105.834 87.2475 106.231 85.7039 106.231C84.1602 106.231 83.3137 105.983 83.3137 103.103C83.3137 100.172 84.2598 99.8744 85.7039 99.8744ZM85.7039 105.735C87.0981 105.735 87.5961 105.387 87.5961 103.103C87.5961 100.47 86.9487 100.371 85.7039 100.371C84.5088 100.371 83.8117 100.421 83.8117 103.103C83.8117 105.387 84.3096 105.735 85.7039 105.735Z" fill="white"/>
<path d="M90.9324 99.9241H91.4303L94.916 105.238V99.9241H95.4139V106.182H94.916L91.4303 100.868V106.182H90.9324V99.9241Z" fill="white"/>
<path d="M100.393 99.9241H100.891L103.082 106.182H102.534L101.937 104.294H99.2978L98.6505 106.182H98.053L100.393 99.9241ZM101.788 103.798L100.692 100.619L99.5468 103.798H101.788ZM101.439 98.2355H102.037L100.891 99.3777H100.443L101.439 98.2355Z" fill="white"/>
<path d="M105.522 99.9241H106.02V103.45C106.02 105.784 106.767 105.735 107.813 105.735C108.759 105.735 109.556 105.685 109.556 103.45V99.9241H110.054V103.45C110.054 106.182 108.858 106.231 107.813 106.231C106.668 106.231 105.522 106.281 105.522 103.45V99.9241Z" fill="white"/>
<path d="M112.643 99.9241H117.025V100.421H115.033V106.182H114.535V100.421H112.593V99.9241H112.643Z" fill="white"/>
<path d="M119.763 99.9241H120.261V106.182H119.763V99.9241Z" fill="white"/>
<path d="M125.091 99.8744C125.54 99.8744 126.486 99.9737 127.083 100.073V100.47C127.083 100.47 125.888 100.371 125.091 100.371C123.946 100.371 123.498 100.917 123.498 103.053C123.498 104.642 123.896 105.735 125.091 105.735C125.988 105.735 127.083 105.685 127.083 105.685V106.082C126.486 106.182 125.54 106.281 125.091 106.281C123.498 106.281 123 104.94 123 103.103C123 101.066 123.398 99.8744 125.091 99.8744Z" fill="white"/>
<path d="M131.863 99.8744C133.357 99.8744 134.254 100.172 134.254 103.103C134.254 105.834 133.407 106.231 131.863 106.231C130.32 106.231 129.473 105.983 129.473 103.103C129.473 100.172 130.419 99.8744 131.863 99.8744ZM131.863 105.735C133.258 105.735 133.756 105.387 133.756 103.103C133.756 100.47 133.108 100.371 131.863 100.371C130.668 100.371 129.971 100.421 129.971 103.103C129.971 105.387 130.469 105.735 131.863 105.735Z" fill="white"/>
<path d="M7.82496 82.4424L6.28134 86.4652H0.0570068L9.56778 64.0667C9.86655 63.3217 10.6135 62.8251 11.46 62.8251H14.3481C15.1448 62.8251 15.8917 63.3217 16.2403 64.0667L25.7013 86.4652H19.4769L17.8835 82.4424H7.82496ZM12.8044 69.6291L9.76697 77.4263H15.8419L12.8044 69.6291Z" fill="white"/>
<path d="M49.8019 86.4651H46.1669C45.5693 86.4651 45.0216 86.2168 44.6232 85.7698L33.9174 73.5524V86.4651H28.0416V62.974H31.577C32.1746 62.974 32.7223 63.2223 33.1207 63.6693L43.8763 76.1846V62.974H49.7521V86.4651H49.8019Z" fill="white"/>
<path d="M65.7859 68.1887V86.4651H59.9101V68.1887H52.3911V62.974H73.2551V66.1525C73.2551 67.2451 72.3588 68.1887 71.2135 68.1887H65.7859Z" fill="white"/>
<path d="M78.4339 82.4424L76.8902 86.4652H70.6659L80.1767 64.0667C80.4755 63.3217 81.2224 62.8251 82.0689 62.8251H84.957C85.7537 62.8251 86.5006 63.3217 86.8492 64.0667L96.3101 86.4652H90.0858L88.4924 82.4424H78.4339ZM83.4631 69.6291L80.4257 77.4263H86.5006L83.4631 69.6291Z" fill="white"/>
<path d="M104.626 79.6611V86.4651H98.75V62.974H109.058C114.883 62.974 118.817 66.1525 118.817 71.2182C118.817 74.496 117.124 77.0786 114.336 78.5188L120.411 86.4651H114.336C113.688 86.4651 113.091 86.1671 112.693 85.6705L108.261 79.6611H104.626ZM108.958 74.3967C111.199 74.3967 112.991 73.1551 112.991 71.2182C112.991 69.331 111.199 68.0894 108.958 68.0894H104.626V74.3967H108.958Z" fill="white"/>
<path d="M128.428 72.3108H138.835V75.241C138.835 76.3336 137.939 77.2772 136.793 77.2772H128.378V81.3497H140.329V86.4154H122.502V62.974H140.329V68.0397H128.378V72.3108H128.428Z" fill="white"/>
<path d="M162.886 70.2746H158.454C157.657 70.2746 156.96 69.778 156.611 69.0827C156.064 67.9901 154.968 67.2948 153.176 67.2948C151.184 67.2948 149.839 68.1391 149.839 69.629C149.839 70.9203 150.785 71.4666 152.528 71.8639L155.815 72.6089C160.097 73.5525 162.935 75.2907 162.935 79.3135C162.935 84.0316 159.051 86.9617 153.176 86.9617C147.897 86.9617 143.117 84.4785 142.52 78.6678H146.951C147.698 78.6678 148.395 79.0652 148.744 79.7605C149.491 81.2007 151.084 81.9953 153.325 81.9953C155.516 81.9953 156.661 81.2007 156.661 79.9094C156.661 79.1148 156.163 78.2705 154.171 77.9229L150.287 77.0786C145.657 76.0853 143.466 73.9001 143.466 70.1753C143.466 65.4572 147.3 62.527 152.827 62.527C156.611 62.4277 162.288 63.9176 162.886 70.2746Z" fill="white"/>
<path d="M109.854 1.19192C109.257 0.446958 108.41 0.0496519 107.464 0.0496519C107.165 0.0496519 106.867 0.0993099 106.568 0.198638L81.4714 7.84691L56.3748 0.148986C56.0761 0.049658 55.7773 0 55.4785 0C54.5822 0 53.6859 0.397306 53.0884 1.14227C52.3415 2.13555 52.2419 3.47649 52.8892 4.5691L78.882 46.4359C79.4298 47.3298 80.3759 47.8761 81.4216 47.8761C82.4673 47.8761 83.4133 47.3298 83.9611 46.4359L109.954 4.5691C110.651 3.52615 110.601 2.1852 109.854 1.19192Z" fill="#C50B43"/>
<path d="M110.004 43.3071L84.0108 1.44024C83.4631 0.546286 82.517 0 81.4713 0V40.0292L106.568 47.7271C106.867 47.8265 107.165 47.8761 107.464 47.8761C108.36 47.8761 109.257 47.4788 109.854 46.7339C110.601 45.7406 110.651 44.35 110.004 43.3071Z" fill="url(#paint0_linear_1461_7272)"/>
<path d="M52.9392 43.3071L78.932 1.44024C79.4798 0.546286 80.4259 0 81.4716 0V40.0292L56.375 47.7271C56.0763 47.8265 55.7775 47.8761 55.4787 47.8761C54.5824 47.8761 53.6861 47.4788 53.0886 46.7339C52.3417 45.7406 52.2919 44.35 52.9392 43.3071Z" fill="url(#paint1_linear_1461_7272)"/>
<defs>
<linearGradient id="paint0_linear_1461_7272" x1="101.566" y1="51.7341" x2="74.1979" y2="4.20602" gradientUnits="userSpaceOnUse">
<stop stop-color="#D70D49"/>
<stop offset="1" stop-color="#FC8F26"/>
</linearGradient>
<linearGradient id="paint1_linear_1461_7272" x1="48.4885" y1="38.7892" x2="90.0038" y2="14.7573" gradientUnits="userSpaceOnUse">
<stop stop-color="#FC8F26"/>
<stop offset="1" stop-color="#D70D49"/>
</linearGradient>
</defs>
</svg>
